<svg xmlns="http://www.w3.org/2000/svg" xmlns:xlink="http://www.w3.org/1999/xlink" preserveAspectRatio="xMidYMid" width="97" height="97" viewBox="0 0 97 97">
  <defs>
    <style>

      .cls-2 {
        fill: #45b613;
      }
    </style>
  </defs>
  <path d="M48.500,97.001 C21.756,97.001 -0.002,75.244 -0.002,48.500 C-0.002,21.756 21.756,-0.002 48.500,-0.002 C75.244,-0.002 97.001,21.756 97.001,48.500 C97.001,75.244 75.244,97.001 48.500,97.001 ZM48.500,10.319 C27.447,10.319 10.318,27.446 10.318,48.500 C10.318,69.554 27.447,86.681 48.500,86.681 C69.553,86.681 86.682,69.554 86.682,48.500 C86.682,27.446 69.553,10.319 48.500,10.319 ZM73.777,54.989 C73.777,54.989 47.988,54.989 47.988,54.989 C45.782,54.989 43.994,53.201 43.994,50.996 C43.994,50.996 43.994,20.795 43.994,20.795 C43.994,18.589 45.782,16.801 47.988,16.801 C50.193,16.801 51.981,18.589 51.981,20.795 C51.981,20.795 51.981,47.002 51.981,47.002 C51.981,47.002 73.777,47.002 73.777,47.002 C75.982,47.002 77.771,48.790 77.771,50.996 C77.771,53.201 75.982,54.989 73.777,54.989 Z" id="path-1" class="cls-2" fill-rule="evenodd"/>
</svg>
