<svg xmlns="http://www.w3.org/2000/svg" xmlns:xlink="http://www.w3.org/1999/xlink" preserveAspectRatio="xMidYMid" width="685" height="800" viewBox="0 0 685 800">
  <defs>
    <style>

      .cls-2 {
        fill: #45b613;
        stroke: #45b613;
        stroke-width: 3px;
      }
    </style>
  </defs>
  <path d="M654.516,564.000 C654.516,564.000 632.360,564.000 632.360,564.000 C618.533,609.000 591.712,649.333 555.397,681.667 C555.064,682.000 554.730,682.167 554.398,682.500 C553.231,683.500 552.066,684.500 550.899,685.500 C518.248,715.000 515.250,749.500 515.084,758.167 C515.084,758.167 515.084,784.167 515.084,784.167 C515.084,793.833 507.253,801.500 497.758,801.500 C497.758,801.500 392.143,801.500 392.143,801.500 C382.481,801.500 374.818,793.667 374.818,784.167 C374.818,784.167 374.818,759.333 374.818,759.333 C362.658,760.667 350.496,761.333 338.003,761.333 C322.177,761.333 306.518,760.167 291.192,758.167 C291.192,758.167 291.192,784.167 291.192,784.167 C291.192,793.833 283.362,801.500 273.867,801.500 C273.867,801.500 168.585,801.500 168.585,801.500 C159.423,801.500 151.926,794.333 151.260,785.333 C151.260,785.333 151.260,785.333 151.260,785.167 C151.260,784.833 151.260,784.500 151.260,784.167 C151.260,784.167 151.260,776.333 151.260,776.333 C150.427,758.000 144.763,715.667 111.612,681.500 C88.624,658.000 71.965,629.000 60.471,604.167 C51.808,587.333 44.978,569.500 40.480,551.000 C40.314,550.500 40.314,550.167 40.314,550.167 C35.983,532.333 33.650,513.833 33.650,494.833 C33.650,459.667 41.313,426.167 55.473,395.500 C96.286,426.833 147.262,445.500 202.735,445.500 C316.846,445.500 412.633,366.333 438.287,260.000 C441.952,244.833 450.281,231.166 461.942,221.000 C478.934,206.166 503.589,193.000 539.405,188.500 C555.397,186.500 566.392,204.000 557.896,217.666 C545.735,237.166 535.240,264.333 543.736,294.166 C544.070,295.666 544.402,297.333 544.402,298.833 C584.883,331.500 615.201,373.666 630.693,421.166 C630.693,421.166 654.182,421.166 654.182,421.166 C671.840,421.166 686.167,435.500 686.500,453.167 C686.500,453.167 686.500,532.000 686.500,532.000 C686.500,549.667 672.173,564.000 654.516,564.000 ZM522.413,374.500 C507.920,374.500 496.259,386.166 496.259,400.666 C496.259,415.166 507.920,426.833 522.413,426.833 C536.906,426.833 548.567,415.166 548.567,400.666 C548.567,386.166 536.906,374.500 522.413,374.500 ZM202.735,404.334 C91.622,404.334 1.499,314.000 1.499,202.833 C1.499,91.666 91.622,1.500 202.735,1.500 C313.847,1.500 403.971,91.833 403.971,203.000 C403.971,314.166 313.847,404.334 202.735,404.334 ZM192.573,135.833 C196.238,134.166 199.903,133.666 203.901,133.500 C218.894,132.666 233.054,135.500 246.547,142.000 C253.211,145.166 255.376,144.166 257.709,137.166 C260.207,129.833 262.206,122.333 264.371,114.833 C265.705,109.833 264.038,106.500 259.208,104.333 C250.545,100.500 241.716,97.833 232.387,96.333 C220.226,94.500 220.226,94.333 220.226,82.166 C220.226,64.833 220.226,64.833 202.902,64.833 C200.403,64.833 197.904,64.833 195.405,64.833 C187.409,65.166 185.910,66.500 185.743,74.666 C185.743,78.333 185.743,82.000 185.743,85.666 C185.577,96.500 185.577,96.333 175.248,100.166 C150.260,109.166 134.768,126.333 133.102,153.666 C131.603,177.833 144.263,194.333 164.087,206.166 C176.415,213.500 189.908,217.833 202.902,223.500 C207.899,225.667 212.730,228.333 217.061,231.833 C229.555,242.166 227.223,259.333 212.397,265.833 C204.567,269.333 196.071,270.167 187.576,269.166 C174.249,267.500 161.588,264.000 149.594,257.833 C142.597,254.166 140.432,255.000 138.100,262.666 C136.101,269.333 134.268,275.833 132.436,282.500 C130.103,291.333 130.937,293.500 139.099,297.333 C149.927,302.666 161.422,305.333 173.249,307.166 C182.578,308.666 182.744,309.166 182.911,318.666 C183.078,323.000 183.078,327.333 183.078,331.666 C183.078,337.166 185.743,340.333 191.407,340.500 C197.737,340.666 204.234,340.666 210.564,340.500 C215.895,340.333 218.561,337.500 218.561,332.166 C218.561,326.166 218.894,320.333 218.561,314.333 C218.227,308.333 220.893,305.333 226.723,303.666 C240.217,300.000 251.545,292.833 260.373,282.166 C284.695,252.666 275.366,209.333 240.883,190.166 C229.889,184.166 218.394,179.500 207.066,174.833 C200.403,172.166 194.072,169.000 188.575,164.500 C177.580,155.666 179.746,141.500 192.573,135.833 Z" id="path-1" class="cls-2" fill-rule="evenodd"/>
</svg>
